# xmcd CD database file
#
# Track frame offsets:
#	150
#	14517
#	28897
#	42885
#	56430
#	72686
#	85611
#	99836
#	112371
#	127622
#	140844
#	151138
#
# Disc length: 2317 seconds
#
# Revision: 1
# Processed by: cddbd v1.5.2PL0 Copyright (c) Steve Scherf et al.
# Submitted via: CDex 1.70beta2
#
DISCID=9f090b0c
DTITLE=Arizona - Golden Country Hits Vol. 2
DYEAR=1900
DGENRE=Country
TTITLE0=Born Country
TTITLE1=If You're Gonna Pay In Texas
TTITLE2=Streets Of Bakersfield
TTITLE3=You're My Best Friend
TTITLE4=Mercury Blues
TTITLE5=I Love A Rainy Night
TTITLE6=Country Club
TTITLE7=Cotton Fields
TTITLE8=500 Miles Away From Home
TTITLE9=Drivin' My Life Away
TTITLE10=Louisianna Saturday Night
TTITLE11=Ghostriders In The Sky
EXTD=
EXTT0=
EXTT1=
EXTT2=
EXTT3=
EXTT4=
EXTT5=
EXTT6=
EXTT7=
EXTT8=
EXTT9=
EXTT10=
EXTT11=
PLAYORDER=
